/* XPM */
static char *graphic[] = {
/* width height num_colors chars_per_pixel */
"64 64 170 2", 
/* colors */
"   c None",
".  c #0264D8",
"X  c #0D7ADF",
"o  c #4998E7",
"O  c #076CDC",
"+  c #0D87DF",
"@  c #59ACE9",
"#  c #A4CBF3",
"$  c #B3D9F5",
"%  c #E1EFFB",
"&  c #579EE8",
"*  c None",
"=  c #0050D5",
"-  c #0A71DD",
";  c #0262D8",
":  c #0D78DF",
">  c #0569DA",
",  c #68ABEB",
"<  c #0D85DF",
"1  c #59AAE9",
"2  c #004ED6",
"3  c #77B9ED",
"4  c #95C8F1",
"5  c #1B7EE0",
"6  c #004ED6",
"7  c #0050D6",
"8  c #0D76DF",
"9  c #0567DA",
"0  c #0046D5",
"q  c #3A93E5",
"w  c #086EDC",
"e  c #0D83DF",
"r  c #59A8E9",
"t  c #0366D9",
"y  c #B3D5F5",
"u  c #0048D5",
"i  c None",
"p  c #3A91E5",
"a  c #0D81DF",
"s  c #59A6E9",
"d  c #77B5ED",
"f  c #0B73DE",
"g  c #0364D9",
"h  c #68B4EB",
"j  c #A4D2F3",
"k  c #C2E1F7",
"l  c #D2E8F9",
"z  c None",
"x  c #F0F7FD",
"c  c #1C80E1",
"v  c #3A8FE5",
"b  c #0D7FDF",
"n  c #59A4E9",
"m  c #0161D7",
"M  c #77B3ED",
"N  c #68B2EB",
"B  c #0D8CDF",
"V  c #A3CAF3",
"C  c None",
"Z  c #A4D0F3",
"A  c #D2E6F9",
"S  c #003ED5",
"D  c #0970DD",
"F  c #0D7DDF",
"G  c #096EDC",
"H  c #499BE7",
"J  c #85B9EF",
"K  c #0D8ADF",
"L  c #0C75DE",
"P  c #86BFEF",
"I  c #0466D9",
"U  c #59AFE9",
"Y  c #C2DDF7",
"T  c None",
"R  c #67A8EA",
"E  c None",
"W  c #0D7BDF",
"Q  c #2B8AE3",
"!  c #A4CCF3",
"~  c #076BDB",
"^  c #E1F0FB",
"/  c None",
"(  c #FFFFFF",
")  c None",
"_  c #0263D8",
"`  c #003ED6",
"'  c None",
"]  c #0D79DF",
"[  c #0D86DF",
"{  c #2B95E3",
"}  c #86BBEF",
"|  c #49A4E7",
" . c #59ABE9",
".. c #004FD6",
"X. c #77BAED",
"o. c #95C9F1",
"O. c #B3D8F5",
"+. c #E1EEFB",
"@. c None",
"#. c #004DD6",
"$. c #0A70DD",
"%. c #94C1F0",
"&. c #0D77DF",
"*. c #0568DA",
"=. c #2B86E3",
"-. c #004BD6",
";. c #3A94E5",
":. c #004DD7",
">. c #0D84DF",
",. c #0060D7",
"<. c #2B93E3",
"1. c #59A9E9",
"2. c #94C1F1",
"3. c #D1E5F9",
"4. c None",
"5. c #0D75DF",
"6. c #1C83E1",
"7. c #3A92E5",
"8. c #086DDC",
"9. c #0D82DF",
"0. c None",
"q. c #59A7E9",
"w. c #77B6ED",
"e. c #0047D6",
"r. c #0365D9",
"t. c #A4D3F3",
"y. c #C2E2F7",
"u. c #0B72DD",
"i. c #3A90E5",
"p. c #0D80DF",
"a. c #005CD7",
"s. c #2B8FE3",
"d. c #59A5E9",
"f. c #77B4ED",
"g. c #1C8EE1",
"h. c #0B72DE",
"j. c #95C3F1",
"k. c #3A9DE5",
"l. c #86C2EF",
"z. c #C2E0F7",
"x. c #066ADB",
"c. c #F0F6FD",
"v. c None",
"b. c #0162D8",
"n. c #1C7FE1",
"m. c #0D7EDF",
"M. c #2B8DE3",
"N. c #85BAEF",
"B. c #86C0EF",
"V. c #2B9AE3",
"C. c #A4CFF3",
"Z. c #E0EDFB",
"A. c #003DD5",
"S. c #096FDD",
"D. c #0041D5",
"F. c #0467DA",
"G. c #0D7CDF",
"H. c #499AE7",
"J. c #59A1E9",
"K. c #1C8AE1",
"L. c #0D89DF",
"P. c #0C74DE",
"I. c #86BEEF",
"U. c #1A7CE0",
"Y. c #A4CDF3",
"T. c #59AEE9",
"R. c #0056D6",
"E. c #076CDB",
"W. c #E1F1FB",
"Q. c #75AFEC",
/* pixels */
"                                                z C @.S 0 -.2 7 7 ..-.0 S @.C z                                                 ",
"                                          0./ e.R.,.,.m m m m m m m m m m ,.,.R.e.T 0.                                          ",
"                                      i u a.,.m b.b.b.b.b.b.b.b.b.b.b.b.b.b.b.b.m ,.a.u i                                       ",
"                                  E 6 ,.m b.b.b.b._ _ . . . . . . . . . . _ _ b.b.b.b.m ,.6 '                                   ",
"                              4.#.,.m b.b.; _ . . g g r.r.r.r.r.r.r.r.r.r.g g . . _ ; b.b.m ,.:.4.                              ",
"                          v.D.,.m b.b._ . . g r.r.t t I I I I I I I I I I t t r.r.g . . _ b.b.m ,.D.v.                          ",
"                        * = m b.b._ . g g r.t I I F.F.9 *.*.*.*.*.*.*.*.9 F.F.I I t r.g g . _ b.b.m = *                         ",
"                      ) a.m b.b._ . g r.t I F.F.*.*.*.*.> > > > > > > > *.*.*.*.F.F.I t r.g . _ b.b.m a.)                       ",
"                    A.,.m b._ . g r.t I F.*.*.*.> > x.x.x.x.x.x.x.x.x.x.x.x.> > *.*.*.F.I t r.g . _ b.m ,.A.                    ",
"                  ` ,.b.b._ . r.t I F.*.*.> > x.x.x.~ ~ E.E.E.E.E.E.E.E.~ ~ x.x.x.> > *.*.F.I t r.. _ b.b.,.`                   ",
"                A.,.b.b._ g r.t I F.*.> > x.x.~ E.E.O O 8.8.8.8.8.8.8.8.O O E.E.~ x.x.> > *.F.I t r.g _ b.b.,.A.                ",
"              ) ,.b.b._ g r.t F.*.*.> x.x.~ E.O 8.8.w w G G G G G G G G w w 8.8.O E.~ x.x.> *.*.F.t r.g _ b.b.,.)               ",
"            * a.m b._ g r.I F.*.*.x.x.~ E.O 8.w w G S.S.S.D D D D D D S.S.S.G w w 8.O E.~ x.x.*.*.F.I r.g _ b.m a.*             ",
"          v.= m b._ g r.I F.*.> x.x.~ O 8.w G G S.D D $.$.- - - - - - $.$.D D S.G G w 8.O ~ x.x.> *.F.I r.g _ b.m = v.          ",
"          D.m b._ . r.t F.*.> x.x.E.O 8.w G S.D $.- - u.u.h.h.h.h.h.h.u.u.- - $.D S.G w 8.O E.x.x.> *.F.t r.. _ b.m D.          ",
"        4.,.b.b.. r.t F.*.> x.~ E.O w G S.D $.- u.h.h.f f P.P.P.P.P.P.f f h.h.u.- $.D S.G w O E.~ x.> *.F.t r.. b.b.,.4.        ",
"        :.m b._ g t I *.*.x.x.E.O w G S.$.- u.h.f f P.L L 5.5.5.5.5.5.L L P.f f h.u.- $.S.G w O E.x.x.*.*.I t g _ b.m #.        ",
"      ' ,.b._ . r.I F.*.x.x.E.O w G S.$.- u.h.f P.L 5.8 8 8 &.&.&.&.8 8 8 5.L P.f h.u.- $.S.G w O E.x.x.*.F.I r.. _ b.,.E       ",
"      6 m b.. g t F.*.> x.~ O w G S.Q.Z.Z.Z.+.+.+.+.+.+.+.+.p : : : &.A +.+.+.+.+.+.Z.Z.Z.Q.S.G w O ~ x.> *.F.t g . b.m 6       ",
"    i ,.b._ g r.I *.> x.~ O 8.G S.$.Q.( ( ( ( ( ( ( ( ( x x H X X X ] A ( ( ( ( ( ( ( ( c.%.$.S.G 8.O ~ x.> *.I r.g _ b.,.i     ",
"    u m b.. g t F.*.> x.E.8.w S.$.- h.f R ( ( ( ( ( ( H 6.W W W W W W W X H.y ( ( ( ( N.U.h.- $.S.w 8.E.x.> *.F.t g . b.m u     ",
"  0.a.b.; . r.I *.> x.~ O w G D - u.f P.5.J.( ( ( ( x W G.G.F F F F G.G.W W q ( ( ( j.5.P.f u.- D G w O ~ x.> *.I r.. ; b.a.0.  ",
"  T ,.b._ g t F.*.> x.E.8.G S.$.u.h.P.5.8 &.Y ( ( ( ( M.m.m.m.m.m.m.m.m.F G.;.( ( +.c 8 5.P.h.u.$.S.G 8.E.x.> *.F.t g _ b.,./   ",
"  e.m b.. r.I F.*.x.~ O w G D - h.f L 8 &.: Q ( ( ( ( P m.b p.p.p.p.b m.m.m.I.( ( , : &.8 L f h.- D G w O ~ x.*.F.I r.. b.m e.  ",
"z R.b.b.. r.I *.> x.E.8.w S.$.u.f P.5.! ! Y.Y.x ( ( ( x C.Z Z Z Z Z Z C.C.C.x ( x Y.Y.! ! =.P.f u.$.S.w 8.E.x.> *.I r.. b.b.R.z ",
"C ,.b._ g t F.*.> x.E.8.G D - h.f L n.( ( ( ( ( ( ( ( ( ( ( ( ( ( ( ( ( ( ( ( ( ( ( ( ( ( i.L f h.- D G 8.E.x.> *.F.t g _ b.,.C ",
"@.,.b._ g t F.*.x.~ O w S.D - h.P.5.c M f.d d w.C.( ( ( ( Z X.X.X.X.3 3 4 ( ( C.w.d d f.M c 5.P.h.- D S.w O ~ x.*.F.t g _ b.,.@.",
"S m b.. r.I 9 *.x.~ O w S.$.u.f L 8 &.: X W F m.b % ( ( ( z.[ [ [ [ < >.o.( x s.m.F W X : &.8 L f u.$.S.w O ~ x.*.9 I r.. b.m S ",
"0 m b.. r.I *.> x.E.8.G S.$.u.f L 8 &.] W G.m.m.p.1.( ( ( ( @ + + + [ { x ( B.p.m.m.G.W ] &.8 L f u.$.S.G 8.E.x.> *.I r.. b.m 0 ",
"-.m b.. r.I *.> x.E.8.G D - h.P.5.8 &.] W G.m.b a 9.O.( ( ( ^ L.L.L.+ j ( % K.a b m.G.W ] &.8 5.P.h.- D G 8.E.x.> *.I r.. b.m -.",
"..m b.. r.I *.> x.E.8.G D - h.P.5.&.: X W F m.p.a 9.<.( ( ( ( U K L.T.( ( N 9.a p.m.F W X : &.5.P.h.- D G 8.E.x.> *.I r.. b.m 2 ",
"7 m b.. r.I *.> x.E.8.G D - h.P.5.&.: X W F m.p.9.e < j ( ( ( W.B K y.( k < e 9.p.m.F W X : &.5.P.h.- D G 8.E.x.> *.I r.. b.m 7 ",
"7 m b.. r.I *.> x.E.8.G D - h.P.5.&.: X W F m.p.9.e < g.^ ( ( ( V.U ( ( | < e 9.p.m.F W X : &.5.P.h.- D G 8.E.x.> *.I r.. b.m 7 ",
"2 m b.. r.I *.> x.E.8.G D - h.P.5.&.: X W F m.p.a 9.>.[ h ( ( ( t.y.( $ [ >.9.a p.m.F W X : &.5.P.h.- D G 8.E.x.> *.I r.. b.m ..",
"-.m b.. r.I *.> x.E.8.G D - h.P.5.8 &.] W G.m.b a 9.e < [ l ( ( ( ( x k.< e 9.a b m.G.W ] &.8 5.P.h.- D G 8.E.x.> *.I r.. b.m -.",
"0 m b.. r.I *.> x.E.8.G S.$.u.f L 8 &.] W G.m.m.p.9.e >.[ | ( ( ( ( l.[ >.e 9.p.m.m.G.W ] &.8 L f u.$.S.G 8.E.x.> *.I r.. b.m 0 ",
"S m b.. r.I 9 *.x.~ O w S.$.u.f L 8 &.: X W F m.b a 9.e >.< ( ( ( (  .>.e 9.a b m.F W X : &.8 L f u.$.S.w O ~ x.*.9 I r.. b.m S ",
"@.,.b._ g t F.*.x.~ O w S.D - h.P.5.&.: ] W G.m.m.p.a 9.e e ( ( ( ( 1 e 9.a p.m.m.G.W ] : &.5.P.h.- D S.w O ~ x.*.F.t g _ b.,.@.",
"C ,.b._ g t F.*.> x.E.8.G D - h.f L 8 &.: X W G.m.m.p.a 9.9.( ( ( ( 1.9.a p.m.m.G.W X : &.8 L f h.- D G 8.E.x.> *.F.t g _ b.,.C ",
"z R.b.b.. r.I *.> x.E.8.w S.$.u.f P.5.&.&.] W W F m.m.b p.a ( ( ( ( r p.b m.m.F W W ] &.&.5.P.f u.$.S.w 8.E.x.> *.I r.. b.b.R.z ",
"  e.m b.. r.I F.*.x.~ O w G D - h.f L 8 &.: ] W W G.m.m.m.b ( ( ( ( q.m.m.m.G.W W ] : &.8 L f h.- D G w O ~ x.*.F.I r.. b.m e.  ",
"  / ,.b._ g t F.*.> x.E.8.G S.$.u.h.P.5.8 &.: ] W W G.F m.m.( ( ( ( s m.F G.W W ] : &.8 5.P.h.u.$.S.G 8.E.x.> *.F.t g _ b.,.T   ",
"  0.a.b.; . r.I *.> x.~ O w G D - u.f P.5.8 &.: ] X W W G.G.( ( ( ( d.G.W W X ] : &.8 5.P.f u.- D G w O ~ x.> *.I r.. ; b.a.0.  ",
"    u m b.. g t F.*.> x.E.8.w S.$.- h.f P.5.8 &.&.: ] X W W ( ( ( ( n W X ] : &.&.8 5.P.f h.- $.S.w 8.E.x.> *.F.t g . b.m u     ",
"    i ,.b._ g r.I *.> x.~ O 8.G S.$.- h.f P.5.8 &.&.: : ] 7.( ( ( ( f.] : : &.&.8 5.P.f h.- $.S.G 8.O ~ x.> *.I r.g _ b.,.i     ",
"      6 m b.. g t F.*.> x.~ O w G S.$.- h.f P.L 5.8 &.&.&.} ( ( ( ( y &.&.&.8 5.L P.f h.- $.S.G w O ~ x.> *.F.t g . b.m 6       ",
"      E ,.b._ . r.I F.*.x.x.E.O w G S.$.- u.h.f P.5 v i.} c.( ( ( ( ( ! o v 5 P.f h.u.- $.S.G w O E.x.x.*.F.I r.. _ b.,.'       ",
"        #.m b._ g t I *.*.x.x.E.O w G S.$.- u.h.f J ( ( ( ( ( ( ( ( ( ( ( ( 3.f h.u.- $.S.G w O E.x.x.*.*.I t g _ b.m :.        ",
"        4.,.b.b.. r.t F.*.> x.~ E.O w G S.D $.- u.& V V V # # # # # # V V V 2.u.- $.D S.G w O E.~ x.> *.F.t r.. b.b.,.4.        ",
"          D.m b._ . r.t F.*.> x.x.E.O 8.w G S.D $.- - u.u.h.h.h.h.h.h.u.u.- - $.D S.G w 8.O E.x.x.> *.F.t r.. _ b.m D.          ",
"          v.= m b._ g r.I F.*.> x.x.~ O 8.w G G S.D D $.$.- - - - - - $.$.D D S.G G w 8.O ~ x.x.> *.F.I r.g _ b.m = v.          ",
"            * a.m b._ g r.I F.*.*.x.x.~ E.O 8.w w G S.S.S.D D D D D D S.S.S.G w w 8.O E.~ x.x.*.*.F.I r.g _ b.m a.*             ",
"              ) ,.b.b._ g r.t F.*.*.> x.x.~ E.O 8.8.w w G G G G G G G G w w 8.8.O E.~ x.x.> *.*.F.t r.g _ b.b.,.)               ",
"                A.,.b.b._ g r.t I F.*.> > x.x.~ E.E.O O 8.8.8.8.8.8.8.8.O O E.E.~ x.x.> > *.F.I t r.g _ b.b.,.A.                ",
"                  ` ,.b.b._ . r.t I F.*.*.> > x.x.x.~ ~ E.E.E.E.E.E.E.E.~ ~ x.x.x.> > *.*.F.I t r.. _ b.b.,.`                   ",
"                    A.,.m b._ . g r.t I F.*.*.*.> > x.x.x.x.x.x.x.x.x.x.x.x.> > *.*.*.F.I t r.g . _ b.m ,.A.                    ",
"                      ) a.m b.b._ . g r.t I F.F.*.*.*.*.> > > > > > > > *.*.*.*.F.F.I t r.g . _ b.b.m a.)                       ",
"                        * = m b.b._ . g g r.t I I F.F.9 *.*.*.*.*.*.*.*.9 F.F.I I t r.g g . _ b.b.m = *                         ",
"                          v.D.,.m b.b._ . . g r.r.t t I I I I I I I I I I t t r.r.g . . _ b.b.m ,.D.v.                          ",
"                              4.:.,.m b.b.; _ . . g g r.r.r.r.r.r.r.r.r.r.g g . . _ ; b.b.m ,.#.4.                              ",
"                                  ' 6 ,.m b.b.b.b._ _ . . . . . . . . . . _ _ b.b.b.b.m ,.6 E                                   ",
"                                      i u a.,.m b.b.b.b.b.b.b.b.b.b.b.b.b.b.b.b.m ,.a.u i                                       ",
"                                          0.T e.R.,.,.m m m m m m m m m m ,.,.R.e./ 0.                                          ",
"                                                z C @.S 0 -...7 7 2 -.0 S @.C z                                                 "
};
