/* XPM */
static char *graphic[] = {
/* width height num_colors chars_per_pixel */
"32 32 105 2", 
/* colors */
"   c None",
".  c #0264D8",
"X  c #A4CBF3",
"o  c #95CAF1",
"O  c #579EE8",
"+  c #0A71DD",
"@  c #0262D8",
"#  c #015AD7",
"$  c #0D78DF",
"%  c #0D85DF",
"&  c #68ABEB",
"*  c #49A3E7",
"=  c #B3D7F5",
"-  c #0D76DF",
";  c #086EDC",
":  c #0366D9",
">  c #B3D5F5",
",  c #0044D6",
"<  c #B3D3F4",
"1  c None",
"2  c #3A91E5",
"3  c #0D81DF",
"4  c #0B73DE",
"5  c #D2E8F9",
"6  c #C2E1F7",
"7  c #4897E6",
"8  c #066BDB",
"9  c #F0F7FD",
"0  c #0B71DD",
"q  c #0669DA",
"w  c #1C80E1",
"e  c #0D7FDF",
"r  c #0161D7",
"t  c #77B3ED",
"y  c #1C8DE1",
"u  c #0059D7",
"i  c #0057D7",
"p  c #D2E6F9",
"a  c #0D7DDF",
"s  c None",
"d  c #0C75DE",
"f  c #0466D9",
"g  c #A4CEF3",
"h  c #77BEED",
"j  c #0D7BDF",
"k  c #1C89E1",
"l  c #0D88DF",
"z  c #59ADE9",
"x  c #C2DBF7",
"c  c #E1F0FB",
"v  c #579FE8",
"b  c #FFFFFF",
"n  c #0263D8",
"m  c #0D79DF",
"M  c #2B88E3",
"N  c #3A96E5",
"B  c #86BBEF",
"V  c #49A4E7",
"C  c #398EE4",
"Z  c #0A70DD",
"A  c #0D77DF",
"S  c #0568DA",
"D  c #3A94E5",
"F  c #0D84DF",
"G  c #B3D6F5",
"H  c #2983E1",
"J  c #1C83E1",
"K  c #086DDC",
"L  c #0D82DF",
"P  c #0B74DE",
"I  c #95C5F1",
"U  c #0365D9",
"Y  c #B3D4F5",
"T  c #D2E9F9",
"R  c #F0F8FD",
"E  c #0B72DD",
"W  c None",
"Q  c #066ADA",
"!  c #1C81E1",
"~  c #003FD5",
"^  c #499EE7",
"/  c #0162D7",
"(  c #95C3F1",
")  c #68B3EB",
"_  c #86C2EF",
"`  c #D2E7F9",
"'  c #F0F6FD",
"]  c #0056D7",
"[  c #0D7EDF",
"{  c #096FDC",
"}  c #499CE7",
"|  c #77B2ED",
" . c #85BAEF",
".. c #3A9BE5",
"X. c #0D8BDF",
"o. c #0467D9",
"O. c #D2E5F9",
"+. c #0052D7",
"@. c #0052D7",
"#. c #0D7CDF",
"$. c #3A99E5",
"%. c #1A7CE0",
"&. c None",
"*. c #076CDB",
"=. c #1A7ADF",
/* pixels */
"                      1 , @.] u u ] @., 1                       ",
"                s , u r @ n n n n n n @ r u , s                 ",
"              ~ # / n . . U U : : U U . . n / # ~               ",
"          &.+.r n . U f o.S S S S S S o.f U . n r +.&.          ",
"        W i @ . U o.S q Q 8 8 8 8 8 8 Q q S o.U . @ i W         ",
"      &.i @ . : o.q 8 8 *.K ; ; ; ; K *.8 8 q o.: . @ i &.      ",
"      +.@ . : S Q 8 *.; { { Z Z Z Z { { ; *.8 Q S : . @ +.      ",
"    ~ r . : S Q *.; { Z 0 E 4 4 4 4 E 0 Z { ; *.Q S : . r ~     ",
"  s # n U o.Q *.; { + 4 P d - - - - d P 4 + { ; *.Q o.U n # s   ",
"  , / . o.q 8 ; { x ' ' ' 9 9 ! m t 9 ' ' ' < { ; 8 q o.. / ,   ",
"  u n U S 8 *.{ + 4  .b b I J #.#.j j > b ( %.+ { *.8 S U n u   ",
"1 r . f q 8 ; Z 4 d A > b g [ e e [ a G p w d 4 Z ; 8 q f . r 1 ",
", @ . o.Q *.{ 0 P B p p b b ` 5 5 ` ` 9 9 p | P 0 { *.Q o.. @ , ",
"@.n U S 8 K { E d M } ^ = b c * * * 5 = ^ } 2 d E { K 8 S U n @.",
"] n U S 8 ; Z 4 - $ j [ k 9 b z l V 9 $.[ j $ - 4 Z ; 8 S U n ] ",
"u n : S 8 ; Z 4 - m #.e L ) b T X.6 o L e #.m - 4 Z ; 8 S : n u ",
"u n : S 8 ; Z 4 - m #.e L % c b h R y L e #.m - 4 Z ; 8 S : n u ",
"] n U S 8 ; Z 4 - $ j [ 3 F V b b _ F 3 [ j $ - 4 Z ; 8 S U n ] ",
"@.n U S 8 K { E d A j a e L F b b ..L e a j A d E { K 8 S U n @.",
", @ . o.Q *.{ 0 P - m j [ e 3 b b $.e [ j m - P 0 { *.Q o.. @ , ",
"1 r . f q 8 ; Z 4 d A m j a [ b b N a j m A d 4 Z ; 8 q f . r 1 ",
"  u n U S 8 *.{ + 4 d A m j j b b D j m A d 4 + { *.8 S U n u   ",
"  , / . o.q 8 ; { 0 4 d - A 2 b b & A - d 4 0 { ; 8 q o.. / ,   ",
"  s # n U o.Q *.; { + 4 C X O.b b b Y 7 4 + { ; *.Q o.U n # s   ",
"    ~ r . : S Q *.; { Z =.O v v v v O H Z { ; *.Q S : . r ~     ",
"      +.@ . : S Q 8 *.; { { Z Z Z Z { { ; *.8 Q S : . @ +.      ",
"      &.i @ . : o.q 8 8 *.K ; ; ; ; K *.8 8 q o.: . @ i &.      ",
"        W i @ . U o.S q Q 8 8 8 8 8 8 Q q S o.U . @ i W         ",
"          &.+.r n . U f o.S S S S S S o.f U . n r +.&.          ",
"              ~ # / n . . U U : : U U . . n / # ~               ",
"                s , u r @ n n n n n n @ r u , s                 ",
"                      1 , @.] u u ] @., 1                       "
};
