/* XPM */
static char *graphic[] = {
/* width height num_colors chars_per_pixel */
"32 32 142 2", 
/* colors */
"   c None",
".  c #CB21BE",
"X  c #E03CCE",
"o  c #C40FBD",
"O  c None",
"+  c #F04AE2",
"@  c #C002BC",
"#  c #EBA5E3",
"$  c #C81ABE",
"%  c #F7DAF4",
"&  c #CC25BE",
"*  c #EFB4E7",
"=  c #C40DBD",
"-  c #BC01B2",
";  c #E679D9",
":  c #F992F2",
">  c #C106BC",
",  c #EF3EE0",
"<  c #E248D1",
"1  c #D947C6",
"2  c #CC23BE",
"3  c #D034C3",
"4  c #F292EA",
"5  c #C511BD",
"6  c #E898DF",
"7  c #E63DD6",
"8  c #B200A0",
"9  c #E955DB",
"0  c #F9E6F7",
"q  c #C91CBE",
"w  c #FBE7F9",
"e  c #D63AC1",
"r  c #C20ABD",
"t  c #E885DC",
"y  c #F186E7",
"u  c #C615BD",
"i  c #BC01B4",
"p  c #DD67CF",
"a  c #FBABF5",
"s  c #F1C0EB",
"d  c #D83BC4",
"f  c #F9B7F3",
"g  c #DC5DCC",
"h  c #E58BDB",
"j  c None",
"k  c #E454D4",
"l  c #F8DAF4",
"z  c #DD54CB",
"x  c #CA20BE",
"c  c #F462E8",
"v  c #C613BD",
"b  c #FDF3FB",
"n  c #FACEF7",
"m  c #D437C0",
"M  c #BC01B5",
"N  c #F1BEEB",
"B  c #D130BF",
"V  c #FDF3FC",
"C  c #EEB3E7",
"Z  c #C30CBD",
"A  c #E693DF",
"S  c #EDA9E4",
"D  c #C717BD",
"F  c #DE3CCB",
"G  c #C005BC",
"H  c #CE29BF",
"J  c #F356E6",
"K  c #FAE6F7",
"L  c #D234BF",
"P  c #EEB1E7",
"I  c #F2C2EC",
"U  c #D539C0",
"Y  c #C003BC",
"T  c #FFFFFF",
"R  c #D232BF",
"E  c #DF71D3",
"W  c #EFB5E7",
"Q  c #C40EBD",
"!  c #E23CD0",
"~  c #DB60CF",
"^  c #F9DAF5",
"/  c #C107BC",
"(  c #CF2BBF",
")  c #F1B6EA",
"_  c #DB3CC8",
"`  c #C819BE",
"'  c #EE55E1",
"]  c #F9DAF6",
"[  c #C512BD",
"{  c #FCF2FB",
"}  c #E899DF",
"|  c #BA01B2",
" . c #B900AE",
".. c None",
"X. c #D336C0",
"o. c #B900AE",
"O. c #E949DB",
"+. c #F0BDEB",
"@. c #FEF3FE",
"#. c #CC22BE",
"$. c #D853CB",
"%. c #C510BD",
"&. c #F061E3",
"*. c #E077D7",
"=. c #D02DBF",
"-. c #C91BBE",
";. c #FDE7FB",
":. c #EDB0E7",
">. c #C209BD",
",. c #E83DD9",
"<. c #EC79E0",
"1. c #C614BD",
"2. c #EB55DE",
"3. c #D546C7",
"4. c #CD26BF",
"5. c #F0B5E8",
"6. c #DD6AD3",
"7. c #BB01B2",
"8. c #CA1FBE",
"9. c #FADAF6",
"0. c #C612BD",
"q. c #DA3BC7",
"w. c #E33CD2",
"e. c #EC3DDD",
"r. c None",
"t. c #C718BD",
"y. c #FBB7F6",
"u. c #F7C2F2",
"i. c #E148D0",
"p. c #FADAF7",
"a. c #F156E4",
"s. c #DF54CE",
"d. c #CE2ABF",
"f. c #EDA8E3",
"g. c #E661D7",
"h. c #B400A4",
"j. c #C30BBD",
"k. c #E46DD6",
"l. c #C004BC",
"z. c #F2C1EB",
"x. c #CE28BF",
"c. c #D233BF",
/* pixels */
"                      r.h.o.7.i i 7.o.h.r.                      ",
"                O h.i @ Y l.G G G G l.Y @ i h.O                 ",
"              8 M Y G > / >.>.r r >.>./ > G Y M 8               ",
"          j  .@ G / >.j.Z = = Q Q = = Z j.>./ G @  .j           ",
"        ..| Y > >.j.= o 5 0.v 1.1.v 0.5 o = j.>.> Y - ..        ",
"      j - Y > r Z o [ 1.D ` -.q q -.` D 1.[ o Z r > Y | j       ",
"       .Y > r = %.1.t.q 8.. #.2 2 #.. 8.q t.1.%.= r > Y  .      ",
"    8 @ > r = 5 u $ 8.#.4.x.d.( ( d.x.4.#.8.$ u 5 = r > @ 8     ",
"  O M G >.Z %.u -.x & H =.B R c.c.R B =.H & x -.u %.Z >.G M O   ",
"  h.Y / j.o 1.$ x 6.:.P C * W S e f.* C P :.3 x $ 1.o j./ Y h.  ",
"  i G >.= [ t.8.& ~ h T T T ) ; _ t T T 0 6 ( & 8.t.[ = >.G i   ",
"r.@ > j.o 1.q #.H B X.% T T k ! ! < T l 1 X.B H #.q 1.o j.> @ r.",
"h.Y / Z 5 D 8.4.=.p K b T T V 4 O.u.p.i.q.e L =.4.8.D 5 Z / Y h.",
"o.l.>.= 0.` . x.B m z w T T &.a.f ;.2.w.F d m B x.. ` 0.= >.l.o.",
"7.G >.= v -.#.d.R U q.] T T J a T c e.7 X q.U R d.#.-.v = >.G 7.",
"i G r Q 1.q 2 ( c.e _ 9.T T a T T : , ,.! _ e c.( 2 q 1.Q r G i ",
"i G r Q 1.q 2 ( c.e _ 9.T T @.T T @.a.,.! _ e c.( 2 q 1.Q r G i ",
"7.G >.= v -.#.d.R U q.] T T c y.T T n 7 X q.U R d.#.-.v = >.G 7.",
"o.l.>.= 0.` . x.B m d ^ T T ' + ;.T T <.F d m B x.. ` 0.= >.l.o.",
"h.Y / Z 5 D 8.4.=.L e l T T 9 ,.y T T V q.e L =.4.8.D 5 Z / Y h.",
"r.@ > j.o 1.q #.H B X.% T T g.! ! ] T T I X.B H #.q 1.o j.> @ r.",
"  i G >.= [ t.8.& $.E { T T ) k._ s.T T T # 3.& 8.t.[ = >.G i   ",
"  h.Y / j.o 1.$ x *.+.N s z.z.5.e U g } P +.A x $ 1.o j./ Y h.  ",
"  O M G >.Z %.u -.x & H =.B R c.c.R B =.H & x -.u %.Z >.G M O   ",
"    8 @ > r = 5 u $ 8.#.4.x.d.( ( d.x.4.#.8.$ u 5 = r > @ 8     ",
"       .Y > r = %.1.t.q 8.. #.2 2 #.. 8.q t.1.%.= r > Y  .      ",
"      j | Y > r Z o [ 1.D ` -.q q -.` D 1.[ o Z r > Y - j       ",
"        ..- Y > >.j.= o 5 0.v 1.1.v 0.5 o = j.>.> Y | ..        ",
"          j  .@ G / >.j.Z = = Q Q = = Z j.>./ G @  .j           ",
"              8 M Y G > / >.>.r r >.>./ > G Y M 8               ",
"                O h.i @ Y l.G G G G l.Y @ i h.O                 ",
"                      r.h.o.7.i i 7.o.h.r.                      "
};
