/* XPM */
static char *graphic[] = {
/* width height num_colors chars_per_pixel */
"16 16 57 1", 
/* colors */
"  c None",
". c #0264D8",
"X c #2B89E3",
"o c #0A71DD",
"O c #0D78DF",
"+ c #0569DA",
"@ c #59AAE9",
"# c #0D83DF",
"$ c #0B73DD",
"% c #0055D6",
"& c #3A91E5",
"* c #95C4F1",
"= c #F0F7FD",
"- c None",
"; c #0970DC",
": c #86C1EF",
"> c #015FD8",
", c #A4D0F3",
"< c #D2E6F9",
"1 c #C2DFF7",
"2 c #0161D8",
"3 c #388CE3",
"4 c #0D7DDF",
"5 c #1C8BE1",
"6 c #0466D9",
"7 c #A4CEF3",
"8 c #C2DDF7",
"9 c #0D7BDF",
"0 c None",
"q c #005CD7",
"w c #86BDEF",
"e c #A4CCF3",
"r c #49A6E7",
"t c #B3DAF5",
"y c #076BDB",
"u c #0A72DD",
"i c #68ACEB",
"p c #76B2EC",
"a c #0568DA",
"s c #76B0EC",
"d c #0365D8",
"f c #378BE3",
"g c #95C5F1",
"h c #3A90E4",
"j c #D2E9F9",
"k c #197ADF",
"l c #0D80DF",
"z c #2A87E2",
"x c #096FDC",
"c c #0C76DE",
"v c #0467D9",
"b c None",
"n c #1A7CDF",
"m c #2882E0",
"M c #86BEEF",
"N c #4998E6",
"B c #076CDB",
/* pixels */
"    -0q>>q0-    ",
"   b2d6vv6d2b   ",
"  %.v+yBBy+v.%  ",
" b.ayxouuoxya.b ",
"-2vyfsp&Xpsmyv2-",
"0d+x$e<44i*nx+d0",
"q6yozw=,:1ghoy6q",
">vBuO4@jr:4OuBv>",
">vBuO4#jt54OuBv>",
"q6yoc9l:,l9coy6q",
"0d+x$O9M79O$x+d0",
"-2vy;$N8<h$;yv2-",
" b.ayxk333xya.b ",
"  %.v+yBBy+v.%  ",
"   b2d6vv6d2b   ",
"    -0q>>q0-    "
};
