/* XPM */
static char *graphic[] = {
/* width height num_colors chars_per_pixel */
"16 16 58 1", 
/* colors */
"  c None",
". c #D237C3",
"X c #EFB4E7",
"o c #BC01B6",
"O c #E37FD7",
"+ c #CF2ABF",
"@ c None",
"# c #CC23BF",
"$ c #E072D3",
"% c #C615BD",
"& c #C208BC",
"* c #CD27BF",
"= c #DC5DCC",
"- c #EC7AE1",
"; c #E17AD7",
": c #D437C0",
"> c #E176D4",
", c #E461D5",
"< c #D53FC3",
"1 c #C717BD",
"2 c #DE3CCB",
"3 c #EC49DD",
"4 c #EF61E2",
"5 c #FA9FF4",
"6 c #D23CC6",
"7 c #DE6DD3",
"8 c None",
"9 c #FCE7F9",
"0 c #DA58CB",
"q c #C30ABD",
"w c #C410BD",
"e c #BA01B2",
"r c #E66DD8",
"t c #FFFFFF",
"y c #D232BF",
"u c #F59EED",
"i c #CB20BE",
"p c #D93BC5",
"a c #EB3DDB",
"s c #C107BC",
"d c None",
"f c #BF04BA",
"g c #E78FDC",
"h c #F492EB",
"j c #ECA8E3",
"k c None",
"l c #C91DBE",
"z c #F3C2ED",
"x c #FCC3F8",
"c c #BE03B8",
"v c #FDE7FB",
"b c #E99BDF",
"n c #EA85DF",
"m c #C30DBD",
"M c #CE2EC2",
"N c #C30BBD",
"B c #FAE7F8",
"V c #E785DB",
/* pixels */
"    k8occo8k    ",
"   df&qNNq&f@   ",
"  esNw%11%wNse  ",
" @sm%l#**#l%msd ",
"kfN%67$>=$7i%Nfk",
"8&wl+Xtr,Bg+lw&8",
"oq%#<zthu-py#%qo",
"cN1*:nt5xa2:*1Nc",
"cN1*:ntxt42:*1Nc",
"oq%#yVt3v9py#%qo",
"8&wl.btrrtj+lw&8",
"kfN%M;O>:076%Nfk",
" dsm%l#**#l%ms@ ",
"  esNw%11%wNse  ",
"   @f&qNNq&fd   ",
"    k8occo8k    "
};
