/* XPM */
static char *graphic[] = {
/* width height num_colors chars_per_pixel */
"64 64 272 2", 
/* colors */
"   c None",
".  c #D341C6",
"X  c #F3CBEF",
"o  c #CB21BE",
"O  c #DE68D0",
"+  c #E03CCE",
"@  c #EE49E0",
"#  c #E548D5",
"$  c #C40FBD",
"%  c #F4C2EE",
"&  c #C714BD",
"*  c #B700A9",
"=  c #F7DAF3",
"-  c #C002BC",
";  c #EF6DE3",
":  c #C108BC",
">  c #CF2CBF",
",  c None",
"<  c #F4C2EF",
"1  c #B1009E",
"2  c #C81ABE",
"3  c #DF70D3",
"4  c #F7DAF4",
"5  c #B400A4",
"6  c #FCF3FB",
"7  c #C106BC",
"8  c #F292E9",
"9  c #F0BEEB",
"0  c #CF2ABF",
"q  c #E86DDC",
"w  c #E36CD3",
"e  c #E43CD3",
"r  c #ED3DDE",
"t  c #B700AA",
"y  c #C818BE",
"u  c #DD3CCA",
"i  c #E63DD5",
"p  c #EF3EE0",
"a  c #F4CDEF",
"s  c #EB49DC",
"d  c #CC23BE",
"f  c #B2009E",
"g  c #B700AB",
"h  c #DF6AD0",
"j  c #C511BD",
"k  c None",
"l  c #D335C0",
"z  c #E78EDC",
"x  c #DC63CF",
"c  c #DD3CCB",
"v  c #E63DD6",
"b  c #EF3EE1",
"n  c #D443C7",
"m  c #F44AE8",
"M  c #FAC3F6",
"N  c None",
"B  c #D02EBF",
"V  c #E36CD5",
"C  c #C91CBE",
"Z  c #FBE7F9",
"A  c #D83BC3",
"S  c #C20ABD",
"D  c #F692EE",
"F  c #BA00B1",
"G  c #DC61CF",
"H  c #D439C0",
"J  c #C208BC",
"K  c #FBABF5",
"L  c #CD27BF",
"P  c #EA3DDA",
"I  c #E13CCF",
"U  c #D02CBF",
"Y  c #F5C2EF",
"T  c #FACEF6",
"R  c #ED55DF",
"E  c #DD6BD3",
"W  c #BF01BB",
"Q  c #C91ABE",
"!  c #B500A5",
"~  c #F8DAF4",
"^  c #CA20BE",
"/  c #EB61DD",
"(  c #CD25BE",
")  c #E06CD0",
"_  c #C30EBD",
"`  c #E13CD0",
"'  c #F33EE6",
"]  c #C613BD",
"[  c #FDF3FB",
"{  c #D541C3",
"}  c #F5C2F0",
"|  c #E849D9",
" . c #F14AE4",
".. c #D437C0",
"X. c #D64FCA",
"o. c #BF01BC",
"O. c None",
"+. c #F8DAF5",
"@. c #B700AD",
"#. c #E176D4",
"$. c #FADBF7",
"%. c #D130BF",
"&. c #F33EE7",
"*. c #FDF3FC",
"=. c #CA1EBE",
"-. c None",
";. c #F392EA",
":. c #EEB3E7",
">. c #C30CBD",
",. c #C717BD",
"<. c #B200A0",
"1. c #DA5ECF",
"2. c #E73DD6",
"3. c #D53BC0",
"4. c #C005BC",
"5. c #E348D2",
"6. c #E174D4",
"7. c #CE29BF",
"8. c #D12EBF",
"9. c #D234BF",
"0. c #DA5CCE",
"q. c #FAE6F7",
"w. c #DE6DD3",
"e. c #CA1CBE",
"r. c #EFAAE7",
"t. c #FCE7F9",
"y. c #EE3DE0",
"u. c #CB22BE",
"i. c #DE3CCC",
"p. c #E73DD7",
"a. c #F03EE2",
"s. c #F9C2F5",
"d. c #C30ABD",
"f. c #F2C2EC",
"g. c #FBC3F7",
"h. c #C715BD",
"j. c #E68DDC",
"k. c #F66EEC",
"l. c #ED6DE1",
"z. c #C003BC",
"x. c #CF31C2",
"c. c #FCE7FA",
"v. c #D93BC4",
"b. c #F986F1",
"n. c #FFFFFF",
"m. c None",
"M. c None",
"N. c #D232BF",
"B. c #DF71D3",
"V. c #B800AD",
"C. c #DE67D0",
"Z. c #E66DD9",
"A. c None",
"S. c #C40EBD",
"D. c #EB3DDB",
"F. c #D93BC5",
"G. c #BE00BA",
"H. c #EE91E5",
"J. c #EE55E0",
"K. c #DB60CF",
"L. c #C107BC",
"P. c #F16DE5",
"I. c #CF2BBF",
"U. c #E23CD1",
"Y. c #E678D8",
"T. c #DB3CC8",
"R. c #BE00BB",
"E. c #C819BE",
"W. c #E048CF",
"Q. c #DF6FD3",
"!. c None",
"~. c #B0009C",
"^. c #CC24BE",
"/. c None",
"(. c #F16DE6",
"). c #C512BD",
"_. c #FCF2FB",
"`. c #F36EE8",
"'. c #E23CD2",
"]. c #D336C0",
"[. c #E78FDC",
"{. c #C105BC",
"}. c #DC64CF",
"|. c #F0BDEB",
" X c #B300A2",
".X c #B600A7",
"XX c #F562EB",
"oX c #FBDBF9",
"OX c #FEF3FE",
"+X c #E879DC",
"@X c #E073D3",
"#X c #D63BC1",
"$X c #ED85E3",
"%X c #DB47C8",
"&X c #B0009E",
"*X c #DF69D0",
"=X c #F3C2EC",
"-X c #C510BD",
";X c #F29EEA",
":X c #F7AAF1",
">X c #D43AC0",
",X c #F9ABF3",
"<X c #DF3CCD",
"1X c #E378D4",
"2X c #E83DD8",
"3X c #F13EE3",
"4X c #CD28BF",
"5X c #F3C2ED",
"6X c #D02DBF",
"7X c #DC5ECC",
"8X c #DD48CB",
"9X c #B600A8",
"0X c #F9E5F7",
"qX c #C91BBE",
"wX c #ED9DE2",
"eX c None",
"rX c #CD26BE",
"tX c #C209BD",
"yX c #E83DD9",
"uX c #EE7AE2",
"iX c #C614BD",
"pX c #E99BDF",
"aX c #DD6AD2",
"sX c #D438C0",
"dX c #BF02BC",
"fX c #DD66CF",
"gX c #D546C7",
"hX c #FDE7FC",
"jX c #CD26BF",
"kX c None",
"lX c #DA3BC6",
"zX c #EC3DDC",
"xX c #D131BF",
"cX c #CA1FBE",
"vX c None",
"bX c #CD24BE",
"nX c #D135C3",
"mX c #F89FF1",
"MX c #C30DBD",
"NX c #E33CD2",
"BX c #DA3BC7",
"VX c #D951C8",
"CX c #C718BD",
"ZX c #DC3CC9",
"AX c #D436C0",
"SX c #F6D8F3",
"DX c #F5CEF0",
"FX c #E175D4",
"GX c None",
"HX c #CE2ABF",
"JX c #D12FBF",
"KX c #F46EE9",
"LX c #EB6DDE",
"PX c #FAE7F7",
"IX c #EC3DDE",
"UX c #C718BE",
"YX c #FBB7F7",
"TX c #CA1DBE",
"RX c #DC3CCA",
"EX c #BC00B6",
"WX c #C30BBD",
"QX c None",
"!X c #C716BD",
"~X c #EFA9E6",
"^X c #F46EEA",
"/X c #FAE7F8",
"(X c #C004BC",
")X c #E979DD",
"_X c #D73BC2",
"`X c #F2C1EB",
"'X c #CE28BF",
"]X c #D233BF",
/* pixels */
"                                                k M.-.&X X.Xg @.@.g .X Xf -.M.k                                                 ",
"                                          !.O.! F G.R.o.o.o.o.o.o.o.o.o.o.R.G.F ! vX!.                                          ",
"                                      kX5 EXR.o.dX- z.z.(X(X(X(X(X(X(X(Xz.z.- dXo.R.EX5 kX                                      ",
"                                  m.t G.o.- z.(X(X{.{.7 7 7 7 7 7 7 7 7 7 {.{.(X(Xz.- o.G.t ,                                   ",
"                              GX9XR.o.- (X4.{.7 7 L.L.J J J J J J J J J J L.L.7 7 {.4.(X- o.R.* N                               ",
"                          A.<.G.o.- (X{.7 7 L.J J tXtXS d.d.d.d.d.d.d.d.S tXtXJ J L.7 7 {.(X- o.G.<.A.                          ",
"                        eXV.W - z.{.7 L.L.J tXS d.WXWX>.MXMXMXMXMXMXMXMX>.WXWXd.S tXJ L.L.7 {.z.- W V.eX                        ",
"                      QXEXo.- (X{.7 L.J tXd.WX>.MX_ S.S.$ $ $ $ $ $ $ $ S.S._ MX>.WXd.tXJ L.7 {.(X- o.EX/.                      ",
"                    ~.G.o.z.{.7 L.J tXd.WXMX_ S.$ $ -X-Xj j j j j j j j -X-X$ $ S._ MXWXd.tXJ L.7 {.z.o.G.~.                    ",
"                  1 G.dX(X{.7 : tXd.WXMXS.$ $ -Xj ).] iX& h.h.h.h.h.h.& iX] ).j -X$ $ S.MXWXd.tX: 7 {.(XdXG.1                   ",
"                ~.G.- (X{.L.J tXd.>._ $ $ -Xj ] & !X,.CXy E.E.E.E.E.E.y CX,.!X& ] j -X$ $ _ >.d.tXJ L.{.(X- G.~.                ",
"              /.G.dX(X{.L.J tXWXMXS.$ -Xj ] h.,.UXE.Q qXC TXTXTXTXTXTXC qXQ E.UX,.h.] j -X$ S.MXWXtXJ L.{.(XdXG.QX              ",
"            eXEXo.(X{.L.J S WXMXS.-Xj ] h.,.E.Q C TX=.cX^ o o o o o o ^ cX=.TXC Q E.,.h.] j -XS.MXWXS J L.{.(Xo.EXeX            ",
"          A.V.o.z.{.L.J S WXMX$ -Xj iX!Xy Q C =.cXo u.d ^.bX( ( ( ( bX^.d u.o cX=.C Q y !XiXj -X$ MXWXS J L.{.z.o.V.A.          ",
"          <.W - {.7 J tXWXMX$ -X).h.,.E.C =.^ o d bXrXL 4X'X7.7.7.7.'X4XL rXbXd o ^ =.C E.,.h.).-X$ MXWXtXJ 7 {.- W <.          ",
"        N G.- (X7 : tXWXMX$ -X).h.CX2 e.cXo d ( L 'X7.I.> U 6X6X6X6XU > I.7.'XL ( d o cXe.2 CXh.).-X$ MXWXtX: 7 (X- G.GX        ",
"        * o.z.{.L.tXd.MXS.-X).h.CXQ TX^ u.bXjX'X0 > 6X8.JX%.xXxXxXxX%.JX8.6X> 0 'XjXbXu.^ TXQ CXh.).-XS.MXd.tXL.{.z.o.9X        ",
"      , R.- {.7 J d.>.S.-Xj h.CXQ TX^ d ( 4XHX> B JXxXN.]X9.l l l l 9.]XN.xXJXB > HX4X( d ^ TXQ CXh.j -XS.>.d.J 7 {.- R.m.      ",
"      t o.(X7 L.tXWX_ $ j iX,.2 TX^ x.0.1.K.G x }.fXC.O *Xh h 7XH sXh *XO C.fX}.x G K.1.rXd ^ TX2 ,.iXj $ _ WXtXL.7 (Xo.t       ",
"    kXG.- {.L.J d.MX$ -X] !XE.e.^ d . n.n.n.n.n.n.n.n.n.n.n.n.DX_X#X6 n.n.n.n.n.n.n.n.n.n rXd ^ e.E.!X] -X$ MXd.J L.{.- G.kX    ",
"    5 o.(X7 L.tXWXS.$ j h.y C cXu.( nX|.X 0Xn.n.n.n.n.n.n.~ 5X~XlXlX5X[ n.n.n.n.n.n._.X gX'X( u.cXC y h.j $ S.WXtXL.7 (Xo.5     ",
"  !.EX- 4.7 J d.MX$ -X] ,.Q =.o bX4XI.B xX{ q.n.n.n.n.n.r.ZXu c c u ZX8Xn.n.n.n.6 z { xXB I.4XbXo =.Q ,.] -X$ MXd.J 7 4.- EX!.  ",
"  vXR.z.{.L.tXWX_ $ j h.E.C ^ d jXHX6X%.]XAXa n.n.n.n.n.+X<X+ + + + <XW.*.n.n.[ 1XH AX]X%.6XHXjXd ^ C E.h.j $ _ WXtXL.{.z.R.O.  ",
"  ! o.(X7 J S >.S.-X] ,.Q =.o ( 'X> JXN.].H f.n.n.n.n.n.q U.NXNXNXNXU.H.n.n.*.Y.v.#XH ].N.JX> 'X( o =.Q ,.] -XS.>.S J 7 (Xo.!   ",
"k F dX(X7 J d.MX$ j & UXC cXd L 0 B xXj.= = PXn.n.n.n.n.t.$.$.| 2.v / *.n.*.)Xu BXA 3.sXl xXB 0 L d cXC UX& j $ MXd.J 7 (XdXF k ",
"M.G.- {.L.tXWX_ $ ).!XE.TXo bX'X> JX]XpXn.n.n.n.n.n.n.n.n.n.n.R P R c.n.n.$X` <XRXlX_X>X..]XJX> 'XbXo TXE.!X).$ _ WXtXL.{.- G.M.",
"-.R.z.{.L.tXWXS.-X] ,.Q =.u.rX7.6XxXl VX) w +.n.n.n.n.n.;.P.(.@ @ oXn.n.8 i NXI i.ZXv.#XsXl xX6X7.rXu.=.Q ,.] -XS.WXtXL.{.z.R.-.",
"f o.z.7 J S >.S.-XiXCXqXcXd L I.8.N.].>X_XBX< n.n.n.n.n.(.y.b  .M n.n.:XD.2Xi '.+ c BX_X>X].N.8.I.L d cXqXCXiX-XS.>.S J 7 z.o.&X",
" Xo.(X7 J d.MX$ j & y C ^ ^.4X> JX]X..3.v.T.Y n.n.n.n.n.`.3Xm g.n.n.,Xp IXP p.e ` i.T.v.3...]XJX> 4X^.^ C y & j $ MXd.J 7 (Xo. X",
".Xo.(X7 J d.MX$ j h.E.TXo bX'XU %.9.sX#XF.ZXY n.n.n.n.n.^X&.YXn.n.OXm 3Xy.zXyXi U.<XZXF.#XsX9.%.U 'XbXo TXE.h.j $ MXd.J 7 (Xo..X",
"g o.(X7 J d.MX$ j h.E.TXo ( 7.6XxXl sX#XlXu } n.n.n.n.n.k.K n.n.n.n.YX' b IXP v NX+ u lX#XsXl xX6X7.( o TXE.h.j $ MXd.J 7 (Xo.g ",
"@.o.(X7 J d.MX$ j h.E.TXo ( 7.6XxXl H _XlXc } n.n.n.n.n.g.n.n.n.n.n.n.XXa.r P 2.NX+ c lX_XH l xX6X7.( o TXE.h.j $ MXd.J 7 (Xo.@.",
"@.o.(X7 J d.MX$ j h.E.TXo ( 7.6XxXl H _XlXc } n.n.n.n.n.n.n.n.n.n.n.n.hXa.r P 2.NX+ c lX_XH l xX6X7.( o TXE.h.j $ MXd.J 7 (Xo.@.",
"g o.(X7 J d.MX$ j h.E.TXo ( 7.6XxXl sX#XlXu } n.n.n.n.n.n.YXn.n.n.n.n.n.D IXP v NX+ u lX#XsXl xX6X7.( o TXE.h.j $ MXd.J 7 (Xo.g ",
".Xo.(X7 J d.MX$ j h.E.TXo bX'XU %.9.sX#XF.ZXY n.n.n.n.n.mX&.b.n.n.n.n.n.n.J.yXi U.<XZXF.#XsX9.%.U 'XbXo TXE.h.j $ MXd.J 7 (Xo..X",
" Xo.(X7 J d.MX$ j & y C ^ ^.4X> JX]X..3.v.T.Y n.n.n.n.n.`.3X' hXn.n.n.n.n.T p.e ` i.T.v.3...]XJX> 4X^.^ C y & j $ MXd.J 7 (Xo. X",
"&Xo.z.7 J S >.S.-XiXCXqXcXd L I.8.N.].>X_XBX< n.n.n.n.n.(.y.b KXn.n.n.n.n.n.uX'.+ c BX_X>X].N.8.I.L d cXqXCXiX-XS.>.S J 7 z.o.f ",
"-.R.z.{.L.tXWXS.-X] ,.Q =.u.rX7.6XxXl sX#Xv.% n.n.n.n.n.; zXIXr s.n.n.n.n.n.*.5.i.ZXv.#XsXl xX6X7.rXu.=.Q ,.] -XS.WXtXL.{.z.R.-.",
"M.G.- {.L.tXWX_ $ ).!XE.TXo bX'X> JX]X..>X_X5Xn.n.n.n.n.l.yXP P s n.n.n.n.n.n.Y RXlX_X>X..]XJX> 'XbXo TXE.!X).$ _ WXtXL.{.- G.M.",
"k F dX(X7 J d.MX$ j & UXC cXd L 0 B xXl sX3.=Xn.n.n.n.n.LXi v 2.2.;Xn.n.n.n.n.n.V A 3.sXl xXB 0 L d cXC UX& j $ MXd.J 7 (XdXF k ",
"  ! o.(X7 J S >.S.-X] ,.Q =.o ( 'X> JXN.].H f.n.n.n.n.n.q U.NXNXNX# Z n.n.n.n.n./X#XH ].N.JX> 'X( o =.Q ,.] -XS.>.S J 7 (Xo.!   ",
"  O.R.z.{.L.tXWX_ $ j h.E.C ^ d jXHX6X%.]XAX`Xn.n.n.n.n.Z.<X+ + + + )Xn.n.n.n.n.n.`XAX]X%.6XHXjXd ^ C E.h.j $ _ WXtXL.{.z.R.vX  ",
"  !.EX- 4.7 J d.MX$ -X] ,.Q =.o bX4XI.B xX{ q.n.n.n.n.n.% ZXu c c u ZX% n.n.n.n.n.n.:.xXB I.4XbXo =.Q ,.] -X$ MXd.J 7 4.- EX!.  ",
"    5 o.(X7 L.tXWXS.$ j h.y C cXu.( nX|.9 SXn.n.n.n.n.n.n.5X5XwXlXlXF.%X4 n.n.n.n.n.n.n.|.n ( u.cXC y h.j $ S.WXtXL.7 (Xo.5     ",
"    kXG.- {.L.J d.MX$ -X] !XE.e.^ d . n.n.n.n.n.n.n.n.n.n.n.n.DX_X#X#X3.>X[.= n.n.n.n.n.n.X.d ^ e.E.!X] -X$ MXd.J L.{.- G.kX    ",
"      t o.(X7 L.tXWX_ $ j iX,.2 TX^ x.aXE w.Q.3 B.@X6.FX#.#.#.h H sXsX..].l ]XxXx G w.E aXx.^ TX2 ,.iXj $ _ WXtXL.7 (Xo.t       ",
"      m.R.- {.7 J d.>.S.-Xj h.CXQ TX^ d ( 4XHX> B JXxXN.]X9.l l l l 9.]XN.xXJXB > HX4X( d ^ TXQ CXh.j -XS.>.d.J 7 {.- R.,       ",
"        9Xo.z.{.L.tXd.MXS.-X).h.CXQ TX^ u.bXjX'X0 > 6X8.JX%.xXxXxXxX%.JX8.6X> 0 'XjXbXu.^ TXQ CXh.).-XS.MXd.tXL.{.z.o.*         ",
"        GXG.- (X7 : tXWXMX$ -X).h.CX2 e.cXo d ( L 'X7.I.> U 6X6X6X6XU > I.7.'XL ( d o cXe.2 CXh.).-X$ MXWXtX: 7 (X- G.N         ",
"          <.W - {.7 J tXWXMX$ -X).h.,.E.C =.^ o d bXrXL 4X'X7.7.7.7.'X4XL rXbXd o ^ =.C E.,.h.).-X$ MXWXtXJ 7 {.- W <.          ",
"          A.V.o.z.{.L.J S WXMX$ -Xj iX!Xy Q C =.cXo u.d ^.bX( ( ( ( bX^.d u.o cX=.C Q y !XiXj -X$ MXWXS J L.{.z.o.V.A.          ",
"            eXEXo.(X{.L.J S WXMXS.-Xj ] h.,.E.Q C TX=.cX^ o o o o o o ^ cX=.TXC Q E.,.h.] j -XS.MXWXS J L.{.(Xo.EXeX            ",
"              QXG.dX(X{.L.J tXWXMXS.$ -Xj ] h.,.UXE.Q qXC TXTXTXTXTXTXC qXQ E.UX,.h.] j -X$ S.MXWXtXJ L.{.(XdXG./.              ",
"                ~.G.- (X{.L.J tXd.>._ $ $ -Xj ] & !X,.CXy E.E.E.E.E.E.y CX,.!X& ] j -X$ $ _ >.d.tXJ L.{.(X- G.~.                ",
"                  1 G.dX(X{.7 : tXd.WXMXS.$ $ -Xj ).] iX& h.h.h.h.h.h.& iX] ).j -X$ $ S.MXWXd.tX: 7 {.(XdXG.1                   ",
"                    ~.G.o.z.{.7 L.J tXd.WXMX_ S.$ $ -X-Xj j j j j j j j -X-X$ $ S._ MXWXd.tXJ L.7 {.z.o.G.~.                    ",
"                      /.EXo.- (X{.7 L.J tXd.WX>.MX_ S.S.$ $ $ $ $ $ $ $ S.S._ MX>.WXd.tXJ L.7 {.(X- o.EXQX                      ",
"                        eXV.W - z.{.7 L.L.J tXS d.WXWX>.MXMXMXMXMXMXMXMX>.WXWXd.S tXJ L.L.7 {.z.- W V.eX                        ",
"                          A.<.G.o.- (X{.7 7 L.J J tXtXS d.d.d.d.d.d.d.d.S tXtXJ J L.7 7 {.(X- o.G.<.A.                          ",
"                              N * R.o.- (X4.{.7 7 L.L.J J J J J J J J J J L.L.7 7 {.4.(X- o.R.9XGX                              ",
"                                  , t G.o.- z.(X(X{.{.7 7 7 7 7 7 7 7 7 7 {.{.(X(Xz.- o.G.t m.                                  ",
"                                      kX5 EXR.o.dX- z.z.(X(X(X(X(X(X(X(Xz.z.- dXo.R.EX5 kX                                      ",
"                                          !.vX! F G.R.o.o.o.o.o.o.o.o.o.o.R.G.F ! O.!.                                          ",
"                                                k M.-.f  X.Xg @.@.g .X X&X-.M.k                                                 "
};
