<?xml version="1.0" encoding="utf-8"?>
<!-- Designer: Kylacoin Developers
  	 License: MIT
  	 Font used: Noto Serif
-->
<svg version="1.1" id="Layer_1" xmlns="http://www.w3.org/2000/svg" xmlns:xlink="http://www.w3.org/1999/xlink" x="0px" y="0px"
	 width="1024px" height="1024px" viewBox="0 0 1024 1024" style="enable-background:new 0 0 1024 1024;" xml:space="preserve">
<g>
	<radialGradient id="SVGID_1_" cx="512" cy="512" r="494" gradientUnits="userSpaceOnUse">
		<stop  offset="0" style="stop-color:#FF3FF5"/>
		<stop  offset="0.4073" style="stop-color:#D53BC0"/>
		<stop  offset="0.738" style="stop-color:#C511BD"/>
		<stop  offset="0.9793" style="stop-color:#BF00BC"/>
		<stop  offset="1" style="stop-color:#AA008E"/>
	</radialGradient>
	<circle fill="url(#SVGID_1_)" cx="512" cy="512" r="494"/>
</g>
<path fill="#FFFFFF" d="M712.7,686.6c-6.4,0-12.3-0.7-17.7-2.2s-10.8-4-16-7.6s-10.4-8.3-15.6-14.2c-5.2-5.9-10.5-13.3-16.1-22.3
	l-107-169.9l75.8-83.4c6.7-7.5,13.4-14.3,19.9-20.5s13.2-11.5,19.9-16s13.6-8,20.6-10.4s14.5-3.6,22.3-3.6v-29.8H543.2v29.8
	c11.8,0,20.1,1.2,25,3.6s7.3,6.8,7.3,13.2c0,3.9-0.6,8-1.7,12.1c-1.1,4.1-2.9,8.5-5.5,13.1c-2.5,4.6-5.9,9.5-10.1,14.9
	c-4.2,5.3-9.4,11.3-15.6,17.8l-89.3,97.4v-86h45.2v-31.7h-45.2v-16.5c0-8.2,0.8-14.8,2.4-19.7c1.6-4.9,3.7-8.6,6.3-11.2
	c2.6-2.6,5.8-4.4,9.5-5.2c3.7-0.8,7.7-1.3,11.8-1.3h24.1v-30.3H309V337h24.1c4.1,0,8,0.4,11.5,1.3c3.6,0.8,6.7,2.5,9.4,4.9
	c2.7,2.4,4.8,5.9,6.3,10.5s2.2,10.7,2.2,18.4v18.8H319v31.7h43.5v229.7c0,7.5-0.8,13.5-2.2,18.1c-1.5,4.6-3.6,8.1-6.3,10.4
	c-2.7,2.3-5.9,3.9-9.4,4.6c-3.6,0.8-7.4,1.1-11.5,1.1H309v30.6h198.5v-30.6h-24.1c-4.1,0-8-0.4-11.8-1.3c-3.7-0.8-6.9-2.6-9.5-5.2
	c-2.6-2.6-4.7-6.4-6.3-11.2c-1.6-4.9-2.4-11.4-2.4-19.7V552l25.5-19.9l77.5,132.2c3.6,6,7.2,11.5,10.8,16.4c3.6,5,7.7,9.4,12.2,13.3
	s9.7,7.3,15.7,10.2s13.1,5.3,21.5,7.2c8.3,1.9,18,3.3,29.1,4.2c11,0.9,23.9,1.4,38.5,1.4H715v-30.6h-2.3V686.6z"/>
</svg>
