<?xml version="1.0" encoding="utf-8"?>
<!-- Designer: Yilacoin Developers
  	 License: MIT
  	 Font used: Noto Serif
-->
<svg version="1.1" id="Layer_1" xmlns="http://www.w3.org/2000/svg" xmlns:xlink="http://www.w3.org/1999/xlink" x="0px" y="0px"
	 width="1024px" height="1024px" viewBox="0 0 1024 1024" enable-background="new 0 0 1024 1024" xml:space="preserve">
<g>
	<radialGradient id="SVGID_1_" cx="512" cy="512" r="494" gradientUnits="userSpaceOnUse">
		<stop  offset="0" style="stop-color:#00BF21"/>
		<stop  offset="0.4648" style="stop-color:#00AA1E"/>
		<stop  offset="0.9838" style="stop-color:#00AA01"/>
		<stop  offset="1" style="stop-color:#007F2B"/>
	</radialGradient>
	<circle fill="url(#SVGID_1_)" cx="512" cy="512" r="494"/>
</g>
<g>
	<path fill="#FFFFFF" d="M411.5,768.6v-27.7h15.1c20.8,0,35.1-3.7,42.7-11c7.6-7.3,11.4-18.4,11.4-33.2V572l-84.4-146h-86.7v-32.2
		h68l-19-33.8c-8.6-14.6-16.1-24.1-22.6-28.4c-6.4-4.3-14.6-6.4-24.5-6.4h-8.4v-27.7h181.4v27.7h-24.5c-9.9,0-17.2,1.6-21.9,4.8
		c-4.7,3.2-7.1,8.6-7.1,16.1c0,6.2,1.3,12.5,4,18.7c2.7,6.2,5.3,11.7,7.9,16.4l6.4,12.6h157.3c4.3-7.5,7.4-14.7,9.2-21.4
		c1.8-6.8,2.7-12.8,2.7-18.2c0-9.7-3.4-16.9-10.2-21.8s-16.6-7.3-29.5-7.3h-19.3v-27.7h161.1v27.7h-7.7c-10.1,0-19.1,3.9-27.1,11.8
		c-8,7.8-17.2,21-27.7,39.5l-10,17.4h67.4V426h-85.7l-82.5,146v121.5c0,16.3,3.9,28.3,11.6,35.9c7.7,7.6,21.8,11.4,42.2,11.4h15.5
		v27.7H411.5z M467.5,426l24.2,43.5c7.7,13.5,14.3,27,19.7,40.3c5.4,13.3,9.9,25,13.5,35.1c3.2-7.7,8.1-17.8,14.7-30.1
		c6.6-12.4,14.9-27.4,25-45.3l23.5-43.5H467.5z"/>
</g>
</svg>
